<svg xmlns="http://www.w3.org/2000/svg" width="1400" height="900" viewBox="0 0 1400 900" role="img" aria-labelledby="title desc">
  <title id="title">Lichess March 2026 player rating distribution</title>
  <desc id="desc">Lichess March 2026 player rating distribution</desc>
  <defs>
    <linearGradient id="accentGradient" x1="0" y1="0" x2="0" y2="1">
      <stop offset="0%" stop-color="#d96b38"/>
      <stop offset="100%" stop-color="#a3481f"/>
    </linearGradient>
    <linearGradient id="altGradient" x1="0" y1="0" x2="1" y2="0">
      <stop offset="0%" stop-color="#2e6f95"/>
      <stop offset="100%" stop-color="#7ec8b2"/>
    </linearGradient>
    <filter id="shadow" x="-10%" y="-10%" width="120%" height="120%">
      <feDropShadow dx="0" dy="10" stdDeviation="14" flood-color="#b8ab95" flood-opacity="0.18"/>
    </filter>
  </defs>
  <rect width="1400" height="900" fill="#faf7f2" />
  <g filter="url(#shadow)">
    <rect x="70" y="42" width="1260" height="816" rx="28" fill="#fffdf9"/>
  </g>
  <text x="120" y="110" fill="#18212f" font-size="42" font-weight="700" font-family="Georgia, serif">Lichess March 2026 player rating distribution</text>
  <text x="120" y="148" fill="#667085" font-size="24" font-family="Georgia, serif">All player-slots from the March 2026 rated standard dump, binned in 50-point Elo intervals.</text>
  <g filter="url(#shadow)">    <rect x="120" y="72" width="245" height="108" rx="18" fill="#fffdf9"/>  </g>  <text x="144" y="114" fill="#667085" font-size="22" font-family="Georgia, serif">Player-slots</text>  <text x="144" y="154" fill="#18212f" font-size="34" font-weight="700" font-family="Georgia, serif">180,148,392</text>
  <g filter="url(#shadow)">    <rect x="405" y="72" width="245" height="108" rx="18" fill="#fffdf9"/>  </g>  <text x="429" y="114" fill="#667085" font-size="22" font-family="Georgia, serif">Median Elo</text>  <text x="429" y="154" fill="#18212f" font-size="34" font-weight="700" font-family="Georgia, serif">1,653</text>
  <g filter="url(#shadow)">    <rect x="690" y="72" width="245" height="108" rx="18" fill="#fffdf9"/>  </g>  <text x="714" y="114" fill="#667085" font-size="22" font-family="Georgia, serif">Middle 50%</text>  <text x="714" y="154" fill="#18212f" font-size="34" font-weight="700" font-family="Georgia, serif">1,361 to 1,921</text>
  <g filter="url(#shadow)">    <rect x="975" y="72" width="245" height="108" rx="18" fill="#fffdf9"/>  </g>  <text x="999" y="114" fill="#667085" font-size="22" font-family="Georgia, serif">Mean Elo</text>  <text x="999" y="154" fill="#18212f" font-size="34" font-weight="700" font-family="Georgia, serif">1640.7</text>
  <line x1="120" y1="740.00" x2="1280" y2="740.00" stroke="#d8d2c8" stroke-width="1"/>  <text x="102" y="748.00" text-anchor="end" fill="#667085" font-size="22" font-family="Georgia, serif">0</text>
  <line x1="120" y1="640.00" x2="1280" y2="640.00" stroke="#d8d2c8" stroke-width="1"/>  <text x="102" y="648.00" text-anchor="end" fill="#667085" font-size="22" font-family="Georgia, serif">1.7M</text>
  <line x1="120" y1="540.00" x2="1280" y2="540.00" stroke="#d8d2c8" stroke-width="1"/>  <text x="102" y="548.00" text-anchor="end" fill="#667085" font-size="22" font-family="Georgia, serif">3.5M</text>
  <line x1="120" y1="440.00" x2="1280" y2="440.00" stroke="#d8d2c8" stroke-width="1"/>  <text x="102" y="448.00" text-anchor="end" fill="#667085" font-size="22" font-family="Georgia, serif">5.2M</text>
  <line x1="120" y1="340.00" x2="1280" y2="340.00" stroke="#d8d2c8" stroke-width="1"/>  <text x="102" y="348.00" text-anchor="end" fill="#667085" font-size="22" font-family="Georgia, serif">6.9M</text>
  <line x1="120" y1="240.00" x2="1280" y2="240.00" stroke="#d8d2c8" stroke-width="1"/>  <text x="102" y="248.00" text-anchor="end" fill="#667085" font-size="22" font-family="Georgia, serif">8.7M</text>
  <line x1="120" y1="740" x2="1280" y2="740" stroke="#18212f" stroke-width="2"/>
  <line x1="120" y1="240" x2="120" y2="740" stroke="#18212f" stroke-width="2"/>
  <rect x="120.00" y="736.55" width="16.12" height="3.45" rx="3" fill="url(#accentGradient)" opacity="0.92"/>
  <rect x="138.12" y="735.86" width="16.12" height="4.14" rx="3" fill="url(#accentGradient)" opacity="0.92"/>
  <rect x="156.25" y="732.67" width="16.12" height="7.33" rx="3" fill="url(#accentGradient)" opacity="0.92"/>
  <rect x="174.38" y="727.61" width="16.12" height="12.39" rx="3" fill="url(#accentGradient)" opacity="0.92"/>
  <rect x="192.50" y="720.37" width="16.12" height="19.63" rx="3" fill="url(#accentGradient)" opacity="0.92"/>
  <rect x="210.62" y="710.79" width="16.12" height="29.21" rx="3" fill="url(#accentGradient)" opacity="0.92"/>
  <rect x="228.75" y="698.09" width="16.12" height="41.91" rx="3" fill="url(#accentGradient)" opacity="0.92"/>
  <rect x="246.88" y="682.04" width="16.12" height="57.96" rx="3" fill="url(#accentGradient)" opacity="0.92"/>
  <rect x="265.00" y="660.32" width="16.12" height="79.68" rx="3" fill="url(#accentGradient)" opacity="0.92"/>
  <rect x="283.12" y="637.36" width="16.12" height="102.64" rx="3" fill="url(#accentGradient)" opacity="0.92"/>
  <rect x="301.25" y="610.60" width="16.12" height="129.40" rx="3" fill="url(#accentGradient)" opacity="0.92"/>
  <rect x="319.38" y="580.76" width="16.12" height="159.24" rx="3" fill="url(#accentGradient)" opacity="0.92"/>
  <rect x="337.50" y="551.16" width="16.12" height="188.84" rx="3" fill="url(#accentGradient)" opacity="0.92"/>
  <rect x="355.62" y="526.38" width="16.12" height="213.62" rx="3" fill="url(#accentGradient)" opacity="0.92"/>
  <rect x="373.75" y="502.90" width="16.12" height="237.10" rx="3" fill="url(#accentGradient)" opacity="0.92"/>
  <rect x="391.88" y="476.68" width="16.12" height="263.32" rx="3" fill="url(#accentGradient)" opacity="0.92"/>
  <rect x="410.00" y="446.36" width="16.12" height="293.64" rx="3" fill="url(#accentGradient)" opacity="0.92"/>
  <rect x="428.12" y="416.91" width="16.12" height="323.09" rx="3" fill="url(#accentGradient)" opacity="0.92"/>
  <rect x="446.25" y="388.46" width="16.12" height="351.54" rx="3" fill="url(#accentGradient)" opacity="0.92"/>
  <rect x="464.38" y="359.94" width="16.12" height="380.06" rx="3" fill="url(#accentGradient)" opacity="0.92"/>
  <rect x="482.50" y="336.72" width="16.12" height="403.28" rx="3" fill="url(#accentGradient)" opacity="0.92"/>
  <rect x="500.62" y="315.35" width="16.12" height="424.65" rx="3" fill="url(#accentGradient)" opacity="0.92"/>
  <rect x="518.75" y="256.68" width="16.12" height="483.32" rx="3" fill="url(#accentGradient)" opacity="0.92"/>
  <rect x="536.88" y="265.55" width="16.12" height="474.45" rx="3" fill="url(#accentGradient)" opacity="0.92"/>
  <rect x="555.00" y="251.54" width="16.12" height="488.46" rx="3" fill="url(#accentGradient)" opacity="0.92"/>
  <rect x="573.12" y="248.05" width="16.12" height="491.95" rx="3" fill="url(#accentGradient)" opacity="0.92"/>
  <rect x="591.25" y="240.00" width="16.12" height="500.00" rx="3" fill="url(#accentGradient)" opacity="0.92"/>
  <rect x="609.38" y="243.04" width="16.12" height="496.96" rx="3" fill="url(#accentGradient)" opacity="0.92"/>
  <rect x="627.50" y="250.96" width="16.12" height="489.04" rx="3" fill="url(#accentGradient)" opacity="0.92"/>
  <rect x="645.62" y="272.25" width="16.12" height="467.75" rx="3" fill="url(#accentGradient)" opacity="0.92"/>
  <rect x="663.75" y="302.03" width="16.12" height="437.97" rx="3" fill="url(#accentGradient)" opacity="0.92"/>
  <rect x="681.88" y="345.03" width="16.12" height="394.97" rx="3" fill="url(#accentGradient)" opacity="0.92"/>
  <rect x="700.00" y="386.76" width="16.12" height="353.24" rx="3" fill="url(#accentGradient)" opacity="0.92"/>
  <rect x="718.12" y="431.48" width="16.12" height="308.52" rx="3" fill="url(#accentGradient)" opacity="0.92"/>
  <rect x="736.25" y="477.80" width="16.12" height="262.20" rx="3" fill="url(#accentGradient)" opacity="0.92"/>
  <rect x="754.38" y="522.12" width="16.12" height="217.88" rx="3" fill="url(#accentGradient)" opacity="0.92"/>
  <rect x="772.50" y="558.45" width="16.12" height="181.55" rx="3" fill="url(#accentGradient)" opacity="0.92"/>
  <rect x="790.62" y="594.33" width="16.12" height="145.67" rx="3" fill="url(#accentGradient)" opacity="0.92"/>
  <rect x="808.75" y="620.95" width="16.12" height="119.05" rx="3" fill="url(#accentGradient)" opacity="0.92"/>
  <rect x="826.88" y="646.71" width="16.12" height="93.29" rx="3" fill="url(#accentGradient)" opacity="0.92"/>
  <rect x="845.00" y="667.88" width="16.12" height="72.12" rx="3" fill="url(#accentGradient)" opacity="0.92"/>
  <rect x="863.12" y="686.64" width="16.12" height="53.36" rx="3" fill="url(#accentGradient)" opacity="0.92"/>
  <rect x="881.25" y="699.88" width="16.12" height="40.12" rx="3" fill="url(#accentGradient)" opacity="0.92"/>
  <rect x="899.38" y="710.81" width="16.12" height="29.19" rx="3" fill="url(#accentGradient)" opacity="0.92"/>
  <rect x="917.50" y="717.61" width="16.12" height="22.39" rx="3" fill="url(#accentGradient)" opacity="0.92"/>
  <rect x="935.62" y="723.37" width="16.12" height="16.63" rx="3" fill="url(#accentGradient)" opacity="0.92"/>
  <rect x="953.75" y="728.37" width="16.12" height="11.63" rx="3" fill="url(#accentGradient)" opacity="0.92"/>
  <rect x="971.88" y="731.44" width="16.12" height="8.56" rx="3" fill="url(#accentGradient)" opacity="0.92"/>
  <rect x="990.00" y="733.33" width="16.12" height="6.67" rx="3" fill="url(#accentGradient)" opacity="0.92"/>
  <rect x="1008.12" y="734.96" width="16.12" height="5.04" rx="3" fill="url(#accentGradient)" opacity="0.92"/>
  <rect x="1026.25" y="736.61" width="16.12" height="3.39" rx="3" fill="url(#accentGradient)" opacity="0.92"/>
  <rect x="1044.38" y="736.07" width="16.12" height="3.93" rx="3" fill="url(#accentGradient)" opacity="0.92"/>
  <rect x="1062.50" y="737.01" width="16.12" height="2.99" rx="3" fill="url(#accentGradient)" opacity="0.92"/>
  <rect x="1080.62" y="738.19" width="16.12" height="1.81" rx="3" fill="url(#accentGradient)" opacity="0.92"/>
  <rect x="1098.75" y="739.30" width="16.12" height="0.70" rx="3" fill="url(#accentGradient)" opacity="0.92"/>
  <rect x="1116.88" y="739.65" width="16.12" height="0.35" rx="3" fill="url(#accentGradient)" opacity="0.92"/>
  <rect x="1135.00" y="739.76" width="16.12" height="0.24" rx="3" fill="url(#accentGradient)" opacity="0.92"/>
  <rect x="1153.12" y="739.86" width="16.12" height="0.14" rx="3" fill="url(#accentGradient)" opacity="0.92"/>
  <rect x="1171.25" y="739.91" width="16.12" height="0.09" rx="3" fill="url(#accentGradient)" opacity="0.92"/>
  <rect x="1189.38" y="739.97" width="16.12" height="0.03" rx="3" fill="url(#accentGradient)" opacity="0.92"/>
  <rect x="1207.50" y="740.00" width="16.12" height="0.00" rx="3" fill="url(#accentGradient)" opacity="0.92"/>
  <rect x="1225.62" y="739.98" width="16.12" height="0.02" rx="3" fill="url(#accentGradient)" opacity="0.92"/>
  <rect x="1243.75" y="740.00" width="16.12" height="0.00" rx="3" fill="url(#accentGradient)" opacity="0.92"/>
  <rect x="1261.88" y="740.00" width="16.12" height="0.00" rx="3" fill="url(#accentGradient)" opacity="0.92"/>
  <line x1="373.10" y1="228" x2="373.10" y2="740" stroke="#7f8ea3" stroke-width="4" stroke-dasharray="12 12"/>  <text x="373.10" y="212" text-anchor="middle" fill="#7f8ea3" font-size="22" font-weight="700" font-family="Georgia, serif">10th pct: 1098</text>
  <line x1="574.35" y1="228" x2="574.35" y2="740" stroke="#2e6f95" stroke-width="4" stroke-dasharray="12 12"/>  <text x="574.35" y="212" text-anchor="middle" fill="#2e6f95" font-size="22" font-weight="700" font-family="Georgia, serif">Median: 1653</text>
  <line x1="754.21" y1="228" x2="754.21" y2="740" stroke="#7f8ea3" stroke-width="4" stroke-dasharray="12 12"/>  <text x="754.21" y="212" text-anchor="middle" fill="#7f8ea3" font-size="22" font-weight="700" font-family="Georgia, serif">90th pct: 2149</text>
  <line x1="120.00" y1="740" x2="120.00" y2="752" stroke="#18212f" stroke-width="1"/>  <text x="120.00" y="778" text-anchor="middle" fill="#667085" font-size="22" font-family="Georgia, serif">400</text>
  <line x1="192.52" y1="740" x2="192.52" y2="752" stroke="#18212f" stroke-width="1"/>  <text x="192.52" y="778" text-anchor="middle" fill="#667085" font-size="22" font-family="Georgia, serif">600</text>
  <line x1="265.05" y1="740" x2="265.05" y2="752" stroke="#18212f" stroke-width="1"/>  <text x="265.05" y="778" text-anchor="middle" fill="#667085" font-size="22" font-family="Georgia, serif">800</text>
  <line x1="337.57" y1="740" x2="337.57" y2="752" stroke="#18212f" stroke-width="1"/>  <text x="337.57" y="778" text-anchor="middle" fill="#667085" font-size="22" font-family="Georgia, serif">1000</text>
  <line x1="410.09" y1="740" x2="410.09" y2="752" stroke="#18212f" stroke-width="1"/>  <text x="410.09" y="778" text-anchor="middle" fill="#667085" font-size="22" font-family="Georgia, serif">1200</text>
  <line x1="482.61" y1="740" x2="482.61" y2="752" stroke="#18212f" stroke-width="1"/>  <text x="482.61" y="778" text-anchor="middle" fill="#667085" font-size="22" font-family="Georgia, serif">1400</text>
  <line x1="555.14" y1="740" x2="555.14" y2="752" stroke="#18212f" stroke-width="1"/>  <text x="555.14" y="778" text-anchor="middle" fill="#667085" font-size="22" font-family="Georgia, serif">1600</text>
  <line x1="627.66" y1="740" x2="627.66" y2="752" stroke="#18212f" stroke-width="1"/>  <text x="627.66" y="778" text-anchor="middle" fill="#667085" font-size="22" font-family="Georgia, serif">1800</text>
  <line x1="700.18" y1="740" x2="700.18" y2="752" stroke="#18212f" stroke-width="1"/>  <text x="700.18" y="778" text-anchor="middle" fill="#667085" font-size="22" font-family="Georgia, serif">2000</text>
  <line x1="772.70" y1="740" x2="772.70" y2="752" stroke="#18212f" stroke-width="1"/>  <text x="772.70" y="778" text-anchor="middle" fill="#667085" font-size="22" font-family="Georgia, serif">2200</text>
  <line x1="845.23" y1="740" x2="845.23" y2="752" stroke="#18212f" stroke-width="1"/>  <text x="845.23" y="778" text-anchor="middle" fill="#667085" font-size="22" font-family="Georgia, serif">2400</text>
  <line x1="917.75" y1="740" x2="917.75" y2="752" stroke="#18212f" stroke-width="1"/>  <text x="917.75" y="778" text-anchor="middle" fill="#667085" font-size="22" font-family="Georgia, serif">2600</text>
  <line x1="990.27" y1="740" x2="990.27" y2="752" stroke="#18212f" stroke-width="1"/>  <text x="990.27" y="778" text-anchor="middle" fill="#667085" font-size="22" font-family="Georgia, serif">2800</text>
  <line x1="1062.79" y1="740" x2="1062.79" y2="752" stroke="#18212f" stroke-width="1"/>  <text x="1062.79" y="778" text-anchor="middle" fill="#667085" font-size="22" font-family="Georgia, serif">3000</text>
  <line x1="1135.32" y1="740" x2="1135.32" y2="752" stroke="#18212f" stroke-width="1"/>  <text x="1135.32" y="778" text-anchor="middle" fill="#667085" font-size="22" font-family="Georgia, serif">3200</text>
  <line x1="1207.84" y1="740" x2="1207.84" y2="752" stroke="#18212f" stroke-width="1"/>  <text x="1207.84" y="778" text-anchor="middle" fill="#667085" font-size="22" font-family="Georgia, serif">3400</text>
  <text x="700.00" y="828" text-anchor="middle" fill="#667085" font-size="24" font-family="Georgia, serif">Elo rating</text>
  <text x="44" y="490.00" transform="rotate(-90 44 490.00)" text-anchor="middle" fill="#667085" font-size="24" font-family="Georgia, serif">Player-slots</text>
</svg>
